<svg
  xmlns="http://www.w3.org/2000/svg"
  width="200"
  height="200"
  viewBox="0 0 24 24"
  fill="none"
  stroke="currentColor"
  strokeWidth="2"
  strokeLinecap="round"
  strokeLinejoin="round"
>
  <path d="M6 6h15l-1.5 9H7.5L6 6z" />
  <path d="M6.5 20a2.5 2.5 0 1 0 0-5a2.5,2.5,0,0,0,0,5zM17.5,20a2.5,2.5,0,1,0-2.5-2.5A2.5,2.5,0,0,0,17.5,20z" />
  
  <!-- Person holding the cart -->
  <path d="M10,4 C10,3 11,3 11,4 C11,4.55 10.55,5 10,5 C9.45,5 9,4.55 9,4 C9,3.45 9.45,3 10,3 C10.55,3 11,3.45 11,4" />
  
  <path d="M12,14 C12.55,14 13,14.45 13,15 C13,15.55 12.55,16 12,16 C11.45,16 11,15.55 11,15 C11,14.45 11.45,14 12,14" />
  
  <path d="M8,.5 C8,.22 8.22,.01 8,.01 C7.78,.01 7.56,.22 7.56,.5 L7,.75 L8,.75 L8,.5 Z" />
  
</svg>